<?xml version="1.0" encoding="UTF-8"?>
<svg width="30px" height="24px" viewBox="0 0 30 24" version="1.1" xmlns="http://www.w3.org/2000/svg" xmlns:xlink="http://www.w3.org/1999/xlink">
    <!-- Generator: Sketch 42 (36781) - http://www.bohemiancoding.com/sketch -->
    <title>email</title>
    <desc>Created with Sketch.</desc>
    <defs></defs>
    <g id="Page-1" stroke="none" stroke-width="1" fill="none" fill-rule="evenodd">
        <g id="About-(Main)" transform="translate(-855.000000, -590.000000)">
            <g id="icons" transform="translate(552.000000, 584.000000)">
                <g id="email" transform="translate(300.000000, 0.000000)">
                    <path d="M30,6 L6,6 C4.3425,6 3.015,7.3425 3.015,9 L3,27 C3,28.6575 4.3425,30 6,30 L30,30 C31.6575,30 33,28.6575 33,27 L33,9 C33,7.3425 31.6575,6 30,6 Z M30,12 L18,19.5 L6,12 L6,9 L18,16.5 L30,9 L30,12 Z" id="Shape" fill="#5A5A5A" fill-rule="nonzero"></path>
                    <polygon id="Shape" points="0 0 36 0 36 36 0 36"></polygon>
                </g>
            </g>
        </g>
    </g>
</svg>