<?xml version="1.0" encoding="UTF-8"?>
<svg width="36px" height="36px" viewBox="0 0 36 36" version="1.1" xmlns="http://www.w3.org/2000/svg" xmlns:xlink="http://www.w3.org/1999/xlink">
    <!-- Generator: Sketch 42 (36781) - http://www.bohemiancoding.com/sketch -->
    <title>instagram</title>
    <desc>Created with Sketch.</desc>
    <defs></defs>
    <g id="Page-1" stroke="none" stroke-width="1" fill="none" fill-rule="evenodd">
        <g id="About-(Main)" transform="translate(-652.000000, -584.000000)" fill-rule="nonzero" fill="#5A5A5A">
            <g id="icons" transform="translate(552.000000, 584.000000)">
                <g id="instagram" transform="translate(100.000000, 0.000000)">
                    <path d="M18,3.24792857 C22.8047143,3.24792857 23.3737857,3.26628571 25.2714286,3.35285714 C27.0258571,3.43292857 27.9785714,3.726 28.6127143,3.97242857 C29.3942922,4.26089428 30.1012844,4.72085659 30.6817143,5.3185 C31.2793577,5.89892988 31.73932,6.6059221 32.0277857,7.3875 C32.2742143,8.02157143 32.5673571,8.97435714 32.6473571,10.7287857 C32.7339286,12.6262857 32.7522857,13.1953571 32.7522857,18.0002143 C32.7522857,22.8050714 32.7339286,23.374 32.6473571,25.2716429 C32.5672857,27.0260714 32.2741429,27.9787857 32.0277857,28.6129286 C31.42242,30.1822442 30.1820299,31.4226343 28.6127143,32.028 C27.9786429,32.2744286 27.0258571,32.5675714 25.2714286,32.6475714 C23.3742857,32.7341429 22.8052143,32.7525 18,32.7525 C13.1947857,32.7525 12.6259286,32.7341429 10.7285714,32.6475714 C8.97414286,32.5675 8.02142857,32.2743571 7.38728571,32.028 C6.60570672,31.7395365 5.89871404,31.2795739 5.31828571,30.6819286 C4.72064419,30.1014971 4.26068217,29.3945054 3.97221429,28.6129286 C3.72578571,27.9788571 3.43264286,27.0260714 3.35264286,25.2716429 C3.26607143,23.3742143 3.24771429,22.8050714 3.24771429,18.0002143 C3.24771429,13.1953571 3.26607143,12.6264286 3.35264286,10.7287857 C3.43271429,8.97435714 3.72578571,8.02164286 3.97221429,7.3875 C4.26071219,6.60588315 4.7207246,5.89886454 5.31842857,5.31842857 C5.89886,4.72078705 6.60585176,4.26082503 7.38742857,3.97235714 C8.0215,3.72592857 8.97428571,3.43278571 10.7287143,3.35278571 C12.6262143,3.26621429 13.1952857,3.24785714 18.0001429,3.24785714 L18,3.24792857 Z M18.0001429,0.00564285714 C13.1131429,0.00564285714 12.5001429,0.0263571429 10.5811429,0.113928571 C8.66578571,0.201357143 7.35778571,0.5055 6.21321429,0.950357143 C5.01254276,1.40218794 3.92488009,2.11048499 3.02607143,3.02585714 C2.11049299,3.92460945 1.40199817,5.01227637 0.95,6.213 C0.5055,7.35764286 0.201357143,8.66564286 0.114285714,10.581 C0.0263571429,12.5 0.00564285714,13.113 0.00564285714,18 C0.00564285714,22.887 0.0263571429,23.5 0.114285714,25.419 C0.201714286,27.3343571 0.505857143,28.6423571 0.950714286,29.7869286 C1.40254714,30.9875991 2.11084392,32.0752613 3.02621429,32.9740714 C3.92502002,33.8894471 5.01268354,34.5977447 6.21335714,35.0495714 C7.358,35.4944286 8.666,35.7985714 10.5812857,35.886 C12.5005714,35.9735714 13.1133571,35.9942857 18.0002857,35.9942857 C22.8872143,35.9942857 23.5002857,35.9735714 25.4192857,35.886 C27.3346429,35.7985714 28.6426429,35.4944286 29.7872143,35.0495714 C32.2042673,34.1147478 34.1150335,32.2039816 35.0498571,29.7869286 C35.4947143,28.6422857 35.7988571,27.3342857 35.8862857,25.419 C35.9738571,23.4997143 35.9945714,22.8869286 35.9945714,18 C35.9945714,13.1130714 35.9738571,12.5 35.8862857,10.581 C35.7988571,8.66564286 35.4947143,7.35764286 35.0498571,6.21307143 C34.5980305,5.01239782 33.8897329,3.92473431 32.9743571,3.02592857 C32.0755302,2.11037393 30.9877883,1.40192668 29.787,0.95 C28.6423571,0.5055 27.3343571,0.201357143 25.419,0.114285714 C23.5,0.0263571429 22.887,0.00564285714 18,0.00564285714 L18,0.00564285714 L18.0001429,0.00564285714 Z" id="Shape"></path>
                    <path d="M18,8.75964286 C12.8966917,8.75964286 8.75964286,12.8966917 8.75964286,18 C8.75964286,23.1033083 12.8966917,27.2403571 18,27.2403571 C23.1033083,27.2403571 27.2403571,23.1033083 27.2403571,18 C27.2403571,12.8966917 23.1033083,8.75964286 18,8.75964286 L18,8.75964286 Z M18,23.9980714 C14.6873659,23.998032 12.0019737,21.3125865 12.002,17.9999524 C12.0020263,14.6873183 14.6874612,12.0019154 18.0000952,12.0019286 C21.3127293,12.0019417 23.9981429,14.6873659 23.9981429,18 C23.9981034,21.3126549 21.3126549,23.9980714 18,23.9980714 Z" id="Shape"></path>
                    <ellipse id="Oval" cx="27.6054286" cy="8.39457143" rx="2.15928571" ry="2.15928571"></ellipse>
                </g>
            </g>
        </g>
    </g>
</svg>