<?xml version="1.0" encoding="UTF-8"?>
<svg width="36px" height="30px" viewBox="0 0 36 30" version="1.1" xmlns="http://www.w3.org/2000/svg" xmlns:xlink="http://www.w3.org/1999/xlink">
    <!-- Generator: Sketch 42 (36781) - http://www.bohemiancoding.com/sketch -->
    <title>twitter</title>
    <desc>Created with Sketch.</desc>
    <defs></defs>
    <g id="Page-1" stroke="none" stroke-width="1" fill="none" fill-rule="evenodd">
        <g id="About-(Main)" transform="translate(-752.000000, -587.000000)">
            <g id="icons" transform="translate(552.000000, 584.000000)">
                <g id="twitter" transform="translate(200.000000, 0.000000)">
                    <rect id="Rectangle-path" x="0" y="0" width="36" height="36"></rect>
                    <path d="M11.32128,32.62896 C24.90624,32.62896 32.33664,21.37392 32.33664,11.6136 C32.33664,11.29392 32.33664,10.97568 32.31504,10.65888 C33.7605572,9.61331163 35.0083519,8.31870633 36,6.83568 C34.6519858,7.43299455 33.2219942,7.82471325 31.75776,7.99776 C33.2996313,7.07469416 34.4536179,5.62287166 35.00496,3.91248 C33.5551068,4.77281565 31.9689304,5.37913731 30.31488,5.70528 C28.0253992,3.27080776 24.3874359,2.67496212 21.440951,4.2518591 C18.494466,5.82875607 16.972236,9.18622905 17.72784,12.4416 C11.7891299,12.1438793 6.25604512,9.33886551 2.5056,4.72464 C0.545216769,8.09948841 1.54654255,12.4169177 4.79232,14.58432 C3.61690733,14.5494829 2.4671223,14.232403 1.44,13.65984 L1.44,13.75344 C1.44096211,17.2693339 3.91932214,20.2975706 7.3656,20.99376 C6.27821222,21.2903137 5.13731605,21.3336638 4.03056,21.12048 C4.99816502,24.1292489 7.77106737,26.1904088 10.93104,26.24976 C8.31561845,28.305262 5.0847257,29.4211119 1.75824,29.41776 C1.17058114,29.4166318 0.583493854,29.3810508 0,29.3112 C3.37771577,31.4787982 7.3078753,32.6285524 11.32128,32.6232" id="Shape" fill="#5A5A5A" fill-rule="nonzero"></path>
                </g>
            </g>
        </g>
    </g>
</svg>