<?xml version="1.0" encoding="UTF-8"?>
<svg width="425px" height="425px" viewBox="0 0 425 425" version="1.1" xmlns="http://www.w3.org/2000/svg" xmlns:xlink="http://www.w3.org/1999/xlink">
    <!-- Generator: Sketch 42 (36781) - http://www.bohemiancoding.com/sketch -->
    <title>upgrade</title>
    <desc>Created with Sketch.</desc>
    <defs>
        <rect id="path-1" x="0" y="0" width="176" height="12"></rect>
        <rect id="path-3" x="0" y="0" width="147" height="113"></rect>
        <rect id="path-5" x="0" y="0" width="30" height="11"></rect>
        <rect id="path-7" x="0" y="0" width="30" height="11"></rect>
        <polygon id="path-9" points="0 0 58 0 53.6994476 7 4.15632486 7"></polygon>
        <path d="M0.7019521,3.0858697 C0.7019521,1.9547937 7.2512232,1.0983794 7.2512232,1.0983794 L29.7019521,0.2665245 L51.5384236,1.0983795 C51.5384236,1.0983795 58.054717,1.821801 57.9384213,3.0858697 C57.6665745,6.0406919 39.6833539,7.0858697 29.7019521,7.0858697 C20.3500205,7.0858697 0.7019521,5.5807695 0.7019521,3.0858697 Z" id="path-11"></path>
    </defs>
    <g id="Page-1" stroke="none" stroke-width="1" fill="none" fill-rule="evenodd">
        <g id="Artboard">
            <g id="upgrade">
                <g id="Group">
                    <g id="Page-1">
                        <g id="Drawing">
                            <g id="Group">
                                <path d="M212.5,425 C329.860509,425 425,329.860509 425,212.5 C425,95.1394907 329.860509,0 212.5,0 C95.1394907,0 0,95.1394907 0,212.5 C0,329.860509 95.1394907,425 212.5,425 Z" id="BG" fill="#FFFFFF" fill-rule="nonzero"></path>
                                <g id="Person" transform="translate(33.000000, 83.000000)" stroke="#212121">
                                    <g id="Stickman" transform="translate(50.000000, 5.000000)" stroke-width="2">
                                        <path d="M47.5467377,79.7899094 C52.7101343,79.7899094 62.9382902,73.5460934 63.7079849,72.8550568 C70.7628713,66.5211367 75,56.6059096 75,44 C75,24.117749 60.8969696,8 43.5,8 C26.1030304,8 12,24.117749 12,44 C12,63.882251 30.1497681,79.7899094 47.5467377,79.7899094 Z" id="Head"></path>
                                        <path d="M47.4816362,79.961321 C47.4816362,79.961321 55.8303691,112.729862 58.9610254,129.385134 C61.5031571,142.909421 64.5,170.5 64.5,170.5" id="Body" stroke-linecap="square"></path>
                                        <path d="M64.5,171.5 C64.5,171.5 59.4242708,200.507606 56.5,215.12896 C54.0909374,227.174272 48.5,251.5 48.5,251.5" id="Left-Leg" stroke-linecap="square"></path>
                                        <path d="M64.5,171.5 C64.5,171.5 73.1439505,200.688954 78,215.257103 C82.1439505,227.688954 91.5,252.5 91.5,252.5" id="Right-Leg" stroke-linecap="square"></path>
                                        <path d="M0.449109702,9.36072326 C0.449109702,9.36072326 25.2345145,38.9805774 27.1391064,41.9130266 C34.886009,53.8407252 47.5,79.5 47.5,79.5" id="Right-Arm" stroke-linecap="square"></path>
                                        <path d="M15.9910527,0.921370367 L29.8275224,10.8159216" id="Left-Arm" stroke-linecap="square"></path>
                                    </g>
                                    <path d="M64.173778,2.36770432 C63.925719,1.88778221 63.6224381,1.35440955 63.2292435,0.938736888 C62.0821393,-0.273944642 60.4994357,-0.954405001 60.4994357,-0.954405001 L30.6192326,30.4349042 L15.0026534,28.9677313 C15.0026534,28.9677313 14.9415783,28.5185934 3.87280374,38.4626173 C3.87280374,38.4626173 0.0397870657,55.5078091 1.15929824,54.6652369 C2.38331894,53.7440081 7.18650718,45.6028122 7.18650718,45.6028122 L16.5321886,42.8025891 C16.5321886,42.8025891 16.6948522,42.8596755 16.7765302,42.8901166 C17.4331593,43.1348396 19.1805171,44.6519441 20.5234363,45.6028108 C20.5403207,45.614766 20.5625658,45.6211896 20.5900475,45.6222039 C21.5485461,46.8864526 22.4966441,48.2143228 22.7536897,48.8367218 C22.7869627,48.9172876 22.8496913,49.0778598 22.8496913,49.0778598 L20.3773336,58.5155745 C20.3773336,58.5155745 12.4087259,63.5999604 11.5307761,64.8553859 C10.7277874,66.0036204 27.6288255,61.5780701 27.6288255,61.5780701 C37.1804971,50.1689969 36.5750614,50.8038872 36.5750614,50.8038872 L34.7182114,34.5677713 L49.4151497,19.5654862 C56.9454964,12.2191699 63.33695,5.74205675 64.651406,4.01267808 L65.045595,3.61029932 L64.173778,2.36770432 Z" id="Wrench" transform="translate(33.000000, 32.045595) scale(-1, 1) rotate(-90.000000) translate(-33.000000, -32.045595) "></path>
                                </g>
                                <g id="Table" transform="translate(194.000000, 207.000000)">
                                    <g id="Top">
                                        <g id="path-1-Clipped">
                                            <mask id="mask-2" fill="white">
                                                <use xlink:href="#path-1"></use>
                                            </mask>
                                            <g id="path-1"></g>
                                            <rect id="path-1" stroke="#272727" stroke-width="2" mask="url(#mask-2)" x="0" y="0" width="176" height="12"></rect>
                                        </g>
                                    </g>
                                    <g id="Body" transform="translate(20.000000, 11.000000)">
                                        <g id="path-3-Clipped">
                                            <mask id="mask-4" fill="white">
                                                <use xlink:href="#path-3"></use>
                                            </mask>
                                            <g id="path-3"></g>
                                            <rect id="path-3" stroke="#272727" stroke-width="2" mask="url(#mask-4)" x="0" y="0" width="147" height="113"></rect>
                                        </g>
                                    </g>
                                    <g id="Left-Leg" transform="translate(32.000000, 123.000000)">
                                        <g id="path-5-Clipped">
                                            <mask id="mask-6" fill="white">
                                                <use xlink:href="#path-5"></use>
                                            </mask>
                                            <g id="path-5"></g>
                                            <rect id="path-5" stroke="#272727" stroke-width="2" mask="url(#mask-6)" x="0" y="0" width="30" height="11"></rect>
                                        </g>
                                    </g>
                                    <g id="Right-Leg" transform="translate(125.000000, 123.000000)">
                                        <g id="path-7-Clipped">
                                            <mask id="mask-8" fill="white">
                                                <use xlink:href="#path-7"></use>
                                            </mask>
                                            <g id="path-7"></g>
                                            <rect id="path-7" stroke="#272727" stroke-width="2" mask="url(#mask-8)" x="0" y="0" width="30" height="11"></rect>
                                        </g>
                                    </g>
                                </g>
                                <g id="Laptop" transform="translate(219.000000, 147.000000)">
                                    <g id="Base" transform="translate(0.000000, 54.000000)">
                                        <g id="path-9-Clipped">
                                            <mask id="mask-10" fill="white">
                                                <use xlink:href="#path-9"></use>
                                            </mask>
                                            <g id="path-9"></g>
                                            <polygon id="path-9" stroke="#272727" stroke-width="2" mask="url(#mask-10)" points="0 0 58 0 53.6994476 7 4.15632486 7"></polygon>
                                        </g>
                                    </g>
                                    <g id="Screen" transform="translate(69.493611, 29.098158) rotate(-67.000000) translate(-69.493611, -29.098158) translate(40.493611, 25.098158)">
                                        <g id="path-11-Clipped">
                                            <mask id="mask-12" fill="white">
                                                <use xlink:href="#path-11"></use>
                                            </mask>
                                            <g id="path-11"></g>
                                            <path d="M0.7019521,3.0858697 C0.7019521,1.9547937 7.2512232,1.0983794 7.2512232,1.0983794 L29.7019521,0.2665245 L51.5384236,1.0983795 C51.5384236,1.0983795 58.054717,1.821801 57.9384213,3.0858697 C57.6665745,6.0406919 39.6833539,7.0858697 29.7019521,7.0858697 C20.3500205,7.0858697 0.7019521,5.5807695 0.7019521,3.0858697 Z" id="path-11" stroke="#272727" stroke-width="2" mask="url(#mask-12)"></path>
                                        </g>
                                    </g>
                                </g>
                            </g>
                        </g>
                    </g>
                </g>
            </g>
        </g>
    </g>
</svg>