<svg width="128" height="128" viewBox="0 0 128 128" fill="none" xmlns="http://www.w3.org/2000/svg">
<path fill-rule="evenodd" clip-rule="evenodd" d="M26.6667 112H101.333C107.224 112 112 107.224 112 101.333V26.6667C112 20.7756 107.224 16 101.333 16H26.6667C20.7756 16 16 20.7756 16 26.6667V101.333C16 107.224 20.7756 112 26.6667 112Z M98.6666 98.6667H84.4208V74.4028C84.4208 67.7503 81.893 64.0327 76.6275 64.0327C70.8994 64.0327 67.9067 67.9015 67.9067 74.4028V98.6667H54.1777V52.4444H67.9067V58.6706C67.9067 58.6706 72.0346 51.0323 81.8433 51.0323C91.6475 51.0323 98.6666 57.0193 98.6666 69.4016V98.6667ZM37.799 46.392C33.1227 46.392 29.3333 42.5729 29.3333 37.8627C29.3333 33.1525 33.1227 29.3333 37.799 29.3333C42.4754 29.3333 46.2626 33.1525 46.2626 37.8627C46.2626 42.5729 42.4754 46.392 37.799 46.392ZM30.71 98.6667H45.0258V52.4444H30.71V98.6667Z" fill="currentColor"/>
</svg>
