<svg width="128" height="128" viewBox="0 0 128 128" fill="none" xmlns="http://www.w3.org/2000/svg">
<path d="M102.172 44.4179C102.23 45.2641 102.23 46.1104 102.23 46.9644C102.23 72.9875 82.418 103 46.1904 103V102.984C35.4886 103 25.0091 99.9348 16 94.1554C17.5561 94.3425 19.12 94.4361 20.6879 94.44C29.5566 94.4478 38.1718 91.4723 45.1491 85.9932C36.721 85.8333 29.3304 80.3385 26.7486 72.3167C29.7009 72.8861 32.743 72.7691 35.6407 71.9775C26.4522 70.1212 19.8416 62.0487 19.8416 52.6737V52.4444V52.4241C22.5794 53.9489 25.6449 54.7951 28.7805 54.8887C20.1263 49.1054 17.4586 37.5933 22.6847 28.5927C32.6845 40.8964 47.4384 48.3761 63.2765 49.1678C61.6892 42.3276 63.8576 35.1599 68.9745 30.3515C76.9073 22.8952 89.3835 23.2773 96.8405 31.2055C101.251 30.3359 105.479 28.7175 109.348 26.4244C107.878 30.9832 104.8 34.8557 100.69 37.3164C104.594 36.8563 108.408 35.8111 112 34.2161C109.356 38.1783 106.025 41.6296 102.172 44.4179Z" fill="currentColor"/>
</svg>
